PathFileType	4	(X/Y/Z)	63_2_73_p1_0-280_filt_butterworth.trc
DataRate	CameraRate	NumFrames	NumMarkers	Units	OrigDataRate	OrigDataStartFrame	OrigNumFrames
52.0	52.0	5	27	m	52.0	175	280
Frame#	Time	RHip			RKnee			RAnkle			RBigToe			RSmallToe			RHeel			LHip			LKnee			LAnkle			LBigToe			LSmallToe			LHeel			Neck			Head			Nose			RShoulder			RElbow			RWrist			RThumb			RIndex			RPinky			LShoulder			LElbow			LWrist			LThumb			LIndex			LPinky			
		X1	Y1	Z1	X2	Y2	Z2	X3	Y3	Z3	X4	Y4	Z4	X5	Y5	Z5	X6	Y6	Z6	X7	Y7	Z7	X8	Y8	Z8	X9	Y9	Z9	X10	Y10	Z10	X11	Y11	Z11	X12	Y12	Z12	X13	Y13	Z13	X14	Y14	Z14	X15	Y15	Z15	X16	Y16	Z16	X17	Y17	Z17	X18	Y18	Z18	X19	Y19	Z19	X20	Y20	Z20	X21	Y21	Z21	X22	Y22	Z22	X23	Y23	Z23	X24	Y24	Z24	X25	Y25	Z25	X26	Y26	Z26	X27	Y27	Z27	
175	3.3653846153846154	0.304081622038473	0.5867596419176336	0.6716808352632351	0.3262561476307965	0.721945324266791	1.1667399677896608	0.3237345485529451	0.8302617715110197	1.57007274836384	0.2878802699108811	0.6239589640082217	1.6151968260063287	0.36437255236825805	0.6513242228597256	1.6037948286408796	0.3152705487185127	0.9620328797889313	1.642000169040226	0.08127361415513366	0.590437368867351	0.696700868550685	0.10356776047298787	0.7179635624807191	1.1635078790117859	0.1297908108781191	0.8747683818965099	1.5726850989612626	0.13877673659822426	0.6529791331845942	1.6031954867227003	0.0873728393736008	0.7146074843595936	1.6050850120407427	0.14595721134882414	0.9482556522764912	1.617206658458926	0.12098880422572914	0.36404676426036997	0.13820090347906722	0.09461901363424176	0.2786206183912436	-0.08126821644557568	0.11254210629326711	0.22870100422125278	0.04341011199810829	0.3108999478387027	0.3717765649161322	0.22662522474610458	0.4219566328340271	0.44068824286998026	0.46333524677076926	0.42105673305855795	0.3058243122989123	0.7162236497146375	0.3452657155044064	0.2987314283122787	0.8294587446960957	0.3496530515642061	0.29160993162722637	0.856695587515621	0.41001571986604796	0.3621328424461847	0.8664956076394617	-0.0008391961520529095	0.3829396550977446	0.26521543175945833	-0.0764091388959608	0.42462521452292934	0.5368657070874832	4.979432015342197e-05	0.32164122528909006	0.7661560321396287	0.10182643804517275	0.34170884128130685	0.8616332552905424	0.08880425658995234	0.3178185836462548	0.8794211994576017	0.01649385328704914	0.32781609633936465	0.8992145600514816
176	3.3846153846153846	0.30399814782467727	0.5867949936552147	0.6720237903798607	0.32612655036221183	0.721605629663447	1.166426587723262	0.3250476096718581	0.8260197948845318	1.5688894322503721	0.2888845744242051	0.6254488386458325	1.6135063906553555	0.36441235914765785	0.6514882790554593	1.603650896404615	0.31594104145196067	0.9614840002644908	1.6414684550097904	0.08126391672171532	0.5904970295212775	0.6965679625483767	0.10374777766862688	0.7164450049656478	1.1592377004192331	0.12980640393907436	0.874706630703403	1.5726171905333435	0.13880226977088955	0.6529989732998446	1.6031780483929567	0.08739688305698434	0.7145498243444066	1.6051019894731735	0.14570021894537144	0.9480457595366799	1.616820908296666	0.11962664906340807	0.35960752231095483	0.1392977946330956	0.09284728517632751	0.28163689989090773	-0.07920976557617712	0.11028707486539199	0.23436421797807894	0.04284653883552106	0.30831848192435063	0.37531331262447654	0.22534081971880326	0.42205227364490927	0.4409386923329986	0.4638286184895135	0.42143795934118666	0.30397715697394534	0.7155391003956172	0.3454930141154308	0.2987480977469655	0.8290602836373598	0.3488853567728655	0.29675548851718575	0.8544667078075824	0.41074324212823365	0.36118086421931933	0.8650882785045607	-0.0025654623602722783	0.3841155151495159	0.2667846076516607	-0.07748782096978829	0.4243775280515374	0.5385667893482899	-0.0011862570928091339	0.3213140446172955	0.7671226174218165	0.10080970837208818	0.3445947102340403	0.862193183376414	0.0859669005835209	0.3142882514359461	0.882787837368916	0.01653078092754902	0.32751053441513445	0.9002685352935822
177	3.4038461538461537	0.30398806018742575	0.5871008890973991	0.672261496016535	0.3258863827865381	0.7210645416959761	1.166409293265968	0.3270184678885115	0.8255525230162205	1.5687250001400894	0.28945806446728733	0.6286217976407414	1.6136139512327539	0.3639609725664985	0.6516599227008004	1.6035646918823057	0.31795900039470376	0.959810754174537	1.639773868321303	0.08123742715207027	0.5904650107405117	0.6965042219978457	0.10391018856179715	0.7162467275020425	1.15720925784923	0.12983077526647774	0.8746237860734785	1.5725933698082097	0.13885249373036238	0.6529319618184926	1.6031225688331279	0.08748370443864582	0.714367254475044	1.6047160691402864	0.14570931289005717	0.9483441437416554	1.61737934162337	0.11867531573401602	0.3566136260161477	0.13980210481657823	0.0906572070710994	0.28262429750049467	-0.07873596644572602	0.10766333740934166	0.24089514970431913	0.042511679592209264	0.30592648588130295	0.38050307225073443	0.22347355141178993	0.42229656017841355	0.4417935467601305	0.46475367746593726	0.42050851354263075	0.30281934978879366	0.7157571799713106	0.3452840996108593	0.2987584754880326	0.8298049939815108	0.3476714549424216	0.30075866683550795	0.85329316524411	0.41104528177647304	0.36540523163823274	0.8637082458477298	-0.005085796755310223	0.38754333143359054	0.26814515113073256	-0.07810014692452327	0.4251224953570335	0.5394556389685328	-0.003006463472835848	0.3205169341704837	0.7674628571879196	0.10041631182586824	0.3489561525099913	0.8621958449126848	0.08427234482855783	0.309164188087625	0.8855879931677996	0.016625756335314358	0.3274992580193835	0.9005128542925993
178	3.423076923076923	0.3042651136279744	0.5880259620317465	0.6732506466265237	0.3262233912724265	0.7209400708574679	1.1664699257394986	0.329745808529683	0.8312855293332524	1.5702142705873579	0.2891544871162333	0.6307314722616397	1.6149642634560393	0.3637219474091636	0.6515606818404941	1.6035571096202932	0.3203765392018326	0.9573121448450549	1.636821796130597	0.08122817139519783	0.5904492411725086	0.6965071338279643	0.10407863265784176	0.7198618730218147	1.157786332336796	0.12985029134647966	0.8745464966252947	1.5725778312603997	0.1388536350989621	0.6528193379538034	1.602997382801038	0.08762762998063381	0.7140262836714973	1.6039418377301373	0.1460327447290809	0.9486062960912427	1.6183060227423065	0.11841391417943756	0.35602858663006826	0.13984604824284497	0.08755029788031979	0.28259869022594925	-0.0795284496639073	0.10457213417982542	0.24647353233221023	0.04298090890064382	0.30471452259087006	0.3842486738111725	0.22210151039362155	0.42234037852553	0.44224768811692317	0.4652729605474528	0.41801115306237907	0.3029797339689523	0.7161057313208176	0.34352188591114563	0.29901603981059477	0.8312436847564769	0.34669541028129924	0.3027042578618413	0.8539221807904502	0.41113072563306885	0.3743984155379506	0.8628394983373691	-0.007599228207434426	0.3920776739993599	0.26899526090614395	-0.07704381040723059	0.4278339441397744	0.5396297706139573	-0.004689870722152134	0.32007637431295644	0.767458458197158	0.10032691140951917	0.3523596668105139	0.8618572661369897	0.08438082093314261	0.3051932797965373	0.8873740144269817	0.017314395953536538	0.3276029038848196	0.9001351243778908
179	3.4423076923076925	0.30474613786456023	0.5892413375398314	0.6747381200603496	0.32777928038546167	0.7217057100233829	1.1665137796103418	0.33194509448829107	0.8411966931737381	1.5727364408657711	0.28789459641933646	0.6320884051864158	1.6165009692560643	0.36366625016618986	0.6513468314466286	1.6036105715369497	0.3214991389598444	0.9550176804710765	1.6332088014009882	0.0812228445414583	0.5905028440659598	0.6965414680087557	0.1044975458373696	0.7264666719413153	1.1591657867684133	0.12985383905528036	0.8744554687698352	1.5725605181539641	0.13877136631189235	0.6526471967558508	1.602870301838968	0.08768785405856706	0.7137388297237128	1.603517700461056	0.14622631146119905	0.948108191029396	1.6189891879587586	0.11825617534519735	0.3565551912496006	0.13959555623929198	0.08415601139639119	0.28220373066339044	-0.08030613658676854	0.10151533691259113	0.24962171501991204	0.04384578453906111	0.3045675091096187	0.38526435273335846	0.22175312252900162	0.4218098564689525	0.4403148804116853	0.4649309423706008	0.41491709719775477	0.3060029966670181	0.7165550766182823	0.3398052030320015	0.2998454270330485	0.8326801649458708	0.34613808384311406	0.30345732288228966	0.8566177089577249	0.4096741370080951	0.3794800910355608	0.8619704933286377	-0.0092945595930122	0.39636314884271634	0.27012305366111516	-0.07415499317398522	0.43304224129157887	0.5394903826042357	-0.005451611183680298	0.32141917954335525	0.7674002803777713	0.10036991745911071	0.3524532183983281	0.8608447520842646	0.08624899648975547	0.30369463547551967	0.8872285760246166	0.01951327784969343	0.3278030673636986	0.899331897749501
